<mxfile host="Electron" modified="2023-09-02T17:53:17.972Z" agent="Mozilla/5.0 (Macintosh; Intel Mac OS X 10_15_7) AppleWebKit/537.36 (KHTML, like Gecko) draw.io/21.6.8 Chrome/114.0.5735.289 Electron/25.5.0 Safari/537.36" etag="hyvlF6SSJ8kSr9L_lIVw" version="21.6.8" type="device" pages="3">
  <diagram id="s1EvRMZb2lIv_xL7dXXI" name="app6">
    <mxGraphModel dx="1282" dy="1004" grid="1" gridSize="10" guides="1" tooltips="1" connect="1" arrows="1" fold="1" page="1" pageScale="1" pageWidth="1100" pageHeight="850" math="0" shadow="0">
      <root>
        <mxCell id="HyvnY60XRrLfKeuSC4Jx-0" />
        <mxCell id="HyvnY60XRrLfKeuSC4Jx-1" parent="HyvnY60XRrLfKeuSC4Jx-0" />
        <mxCell id="HyvnY60XRrLfKeuSC4Jx-2" value="AppX" style="rounded=1;whiteSpace=wrap;html=1;fillColor=#007575;fontColor=#ffffff;strokeColor=none;" parent="HyvnY60XRrLfKeuSC4Jx-1" vertex="1">
          <mxGeometry x="460" y="40" width="120" height="40" as="geometry" />
        </mxCell>
        <mxCell id="HyvnY60XRrLfKeuSC4Jx-3" style="edgeStyle=orthogonalEdgeStyle;curved=1;rounded=0;orthogonalLoop=1;jettySize=auto;html=1;fontColor=#FFB366;strokeColor=#FFB366;" parent="HyvnY60XRrLfKeuSC4Jx-1" source="HyvnY60XRrLfKeuSC4Jx-4" target="HyvnY60XRrLfKeuSC4Jx-27" edge="1">
          <mxGeometry relative="1" as="geometry" />
        </mxCell>
        <mxCell id="HyvnY60XRrLfKeuSC4Jx-4" value="Product::GLView&lt;br&gt;product.jsx" style="rounded=1;whiteSpace=wrap;html=1;fillColor=#1ba1e2;fontColor=#ffffff;strokeColor=#006EAF;" parent="HyvnY60XRrLfKeuSC4Jx-1" vertex="1">
          <mxGeometry x="360" y="210" width="120" height="40" as="geometry" />
        </mxCell>
        <mxCell id="HyvnY60XRrLfKeuSC4Jx-5" style="edgeStyle=orthogonalEdgeStyle;curved=1;rounded=1;jumpStyle=arc;orthogonalLoop=1;jettySize=auto;html=1;startArrow=none;startFill=0;strokeColor=#FFB366;elbow=vertical;fontColor=#FFB366;" parent="HyvnY60XRrLfKeuSC4Jx-1" source="HyvnY60XRrLfKeuSC4Jx-7" target="HyvnY60XRrLfKeuSC4Jx-37" edge="1">
          <mxGeometry relative="1" as="geometry" />
        </mxCell>
        <mxCell id="HyvnY60XRrLfKeuSC4Jx-6" value="" style="edgeStyle=orthogonalEdgeStyle;curved=1;rounded=1;jumpStyle=arc;orthogonalLoop=1;jettySize=auto;html=1;startArrow=none;startFill=0;strokeColor=#FFB366;elbow=vertical;fontColor=#FFB366;" parent="HyvnY60XRrLfKeuSC4Jx-1" source="HyvnY60XRrLfKeuSC4Jx-7" target="HyvnY60XRrLfKeuSC4Jx-38" edge="1">
          <mxGeometry relative="1" as="geometry">
            <Array as="points">
              <mxPoint x="220" y="140" />
              <mxPoint x="220" y="60" />
            </Array>
          </mxGeometry>
        </mxCell>
        <mxCell id="HyvnY60XRrLfKeuSC4Jx-7" value="TopBar&lt;br&gt;topbar.jsx" style="rounded=1;whiteSpace=wrap;html=1;fillColor=#1ba1e2;fontColor=#ffffff;strokeColor=#006EAF;" parent="HyvnY60XRrLfKeuSC4Jx-1" vertex="1">
          <mxGeometry x="240" y="120" width="120" height="40" as="geometry" />
        </mxCell>
        <mxCell id="HyvnY60XRrLfKeuSC4Jx-8" style="edgeStyle=orthogonalEdgeStyle;rounded=0;orthogonalLoop=1;jettySize=auto;html=1;curved=1;startArrow=classic;startFill=1;fontColor=#FFB366;strokeColor=#FFB366;" parent="HyvnY60XRrLfKeuSC4Jx-1" source="HyvnY60XRrLfKeuSC4Jx-2" target="HyvnY60XRrLfKeuSC4Jx-12" edge="1">
          <mxGeometry relative="1" as="geometry" />
        </mxCell>
        <mxCell id="HyvnY60XRrLfKeuSC4Jx-9" style="rounded=1;orthogonalLoop=1;jettySize=auto;html=1;startArrow=classic;startFill=1;elbow=vertical;jumpStyle=arc;edgeStyle=orthogonalEdgeStyle;curved=1;fontColor=#FFB366;strokeColor=#FFB366;" parent="HyvnY60XRrLfKeuSC4Jx-1" source="HyvnY60XRrLfKeuSC4Jx-10" target="HyvnY60XRrLfKeuSC4Jx-11" edge="1">
          <mxGeometry relative="1" as="geometry">
            <Array as="points">
              <mxPoint x="740" y="160" />
            </Array>
          </mxGeometry>
        </mxCell>
        <mxCell id="HyvnY60XRrLfKeuSC4Jx-10" value="Archive&lt;br&gt;archive.js" style="rounded=1;whiteSpace=wrap;html=1;fillColor=#B09500;fontColor=#FFFFFF;strokeColor=#B09500;" parent="HyvnY60XRrLfKeuSC4Jx-1" vertex="1">
          <mxGeometry x="600" y="140" width="120" height="40" as="geometry" />
        </mxCell>
        <mxCell id="HyvnY60XRrLfKeuSC4Jx-11" value="archive.worker.js" style="rounded=1;whiteSpace=wrap;html=1;fillColor=#647687;fontColor=#ffffff;strokeColor=#314354;" parent="HyvnY60XRrLfKeuSC4Jx-1" vertex="1">
          <mxGeometry x="680" y="190" width="120" height="20" as="geometry" />
        </mxCell>
        <mxCell id="HyvnY60XRrLfKeuSC4Jx-12" value="Browser&lt;br&gt;browser.jsx" style="rounded=1;whiteSpace=wrap;html=1;fillColor=#1ba1e2;fontColor=#ffffff;strokeColor=#006EAF;" parent="HyvnY60XRrLfKeuSC4Jx-1" vertex="1">
          <mxGeometry x="520" y="220" width="120" height="40" as="geometry" />
        </mxCell>
        <mxCell id="HyvnY60XRrLfKeuSC4Jx-13" style="edgeStyle=orthogonalEdgeStyle;curved=1;rounded=0;orthogonalLoop=1;jettySize=auto;html=1;exitX=0.5;exitY=1;exitDx=0;exitDy=0;" parent="HyvnY60XRrLfKeuSC4Jx-1" source="HyvnY60XRrLfKeuSC4Jx-7" target="HyvnY60XRrLfKeuSC4Jx-7" edge="1">
          <mxGeometry relative="1" as="geometry" />
        </mxCell>
        <mxCell id="HyvnY60XRrLfKeuSC4Jx-14" style="edgeStyle=orthogonalEdgeStyle;orthogonalLoop=1;jettySize=auto;html=1;strokeColor=#FFB366;startArrow=classic;startFill=1;rounded=1;curved=1;fontColor=#FFB366;" parent="HyvnY60XRrLfKeuSC4Jx-1" source="HyvnY60XRrLfKeuSC4Jx-15" target="HyvnY60XRrLfKeuSC4Jx-17" edge="1">
          <mxGeometry relative="1" as="geometry">
            <Array as="points">
              <mxPoint x="430" y="340" />
            </Array>
          </mxGeometry>
        </mxCell>
        <mxCell id="HyvnY60XRrLfKeuSC4Jx-15" value="Overlay&lt;br&gt;overlay.js" style="rounded=1;whiteSpace=wrap;html=1;fillColor=#B09500;fontColor=#FFFFFF;strokeColor=#B09500;" parent="HyvnY60XRrLfKeuSC4Jx-1" vertex="1">
          <mxGeometry x="260" y="320" width="120" height="40" as="geometry" />
        </mxCell>
        <mxCell id="HyvnY60XRrLfKeuSC4Jx-16" value="Colorbar&lt;br&gt;colorbar.jsx" style="rounded=1;whiteSpace=wrap;html=1;fillColor=#1ba1e2;fontColor=#ffffff;strokeColor=#006EAF;" parent="HyvnY60XRrLfKeuSC4Jx-1" vertex="1">
          <mxGeometry x="550" y="310" width="120" height="40" as="geometry" />
        </mxCell>
        <mxCell id="HyvnY60XRrLfKeuSC4Jx-17" value="overlay.worker.js" style="rounded=1;whiteSpace=wrap;html=1;fillColor=#647687;fontColor=#ffffff;strokeColor=#314354;" parent="HyvnY60XRrLfKeuSC4Jx-1" vertex="1">
          <mxGeometry x="360" y="370" width="120" height="20" as="geometry" />
        </mxCell>
        <mxCell id="HyvnY60XRrLfKeuSC4Jx-18" style="edgeStyle=orthogonalEdgeStyle;curved=1;rounded=0;orthogonalLoop=1;jettySize=auto;html=1;startArrow=classic;startFill=1;fontColor=#FFB366;strokeColor=#FFB366;" parent="HyvnY60XRrLfKeuSC4Jx-1" source="HyvnY60XRrLfKeuSC4Jx-19" target="HyvnY60XRrLfKeuSC4Jx-20" edge="1">
          <mxGeometry relative="1" as="geometry">
            <Array as="points">
              <mxPoint x="360" y="460" />
            </Array>
          </mxGeometry>
        </mxCell>
        <mxCell id="HyvnY60XRrLfKeuSC4Jx-19" value="Polygon&lt;br&gt;polygon.js" style="rounded=1;whiteSpace=wrap;html=1;fillColor=#B09500;fontColor=#FFFFFF;strokeColor=#B09500;" parent="HyvnY60XRrLfKeuSC4Jx-1" vertex="1">
          <mxGeometry x="185" y="440" width="120" height="40" as="geometry" />
        </mxCell>
        <mxCell id="HyvnY60XRrLfKeuSC4Jx-20" value="polygon.worker.js" style="rounded=1;whiteSpace=wrap;html=1;fillColor=#647687;fontColor=#ffffff;strokeColor=#314354;" parent="HyvnY60XRrLfKeuSC4Jx-1" vertex="1">
          <mxGeometry x="270" y="490" width="120" height="20" as="geometry" />
        </mxCell>
        <mxCell id="HyvnY60XRrLfKeuSC4Jx-21" value="" style="endArrow=classic;html=1;rounded=0;curved=1;edgeStyle=orthogonalEdgeStyle;fontColor=#FFB366;strokeColor=#FFB366;" parent="HyvnY60XRrLfKeuSC4Jx-1" source="HyvnY60XRrLfKeuSC4Jx-15" target="HyvnY60XRrLfKeuSC4Jx-19" edge="1">
          <mxGeometry width="50" height="50" relative="1" as="geometry">
            <mxPoint x="490" y="440" as="sourcePoint" />
            <mxPoint x="540" y="390" as="targetPoint" />
            <Array as="points">
              <mxPoint x="320" y="410" />
              <mxPoint x="245" y="410" />
            </Array>
          </mxGeometry>
        </mxCell>
        <mxCell id="HyvnY60XRrLfKeuSC4Jx-22" value="" style="endArrow=classic;html=1;rounded=0;curved=1;exitX=0.5;exitY=1;exitDx=0;exitDy=0;entryX=0.53;entryY=-0.04;entryDx=0;entryDy=0;entryPerimeter=0;edgeStyle=orthogonalEdgeStyle;fontColor=#FFB366;strokeColor=#FFB366;" parent="HyvnY60XRrLfKeuSC4Jx-1" source="HyvnY60XRrLfKeuSC4Jx-4" target="HyvnY60XRrLfKeuSC4Jx-15" edge="1">
          <mxGeometry width="50" height="50" relative="1" as="geometry">
            <mxPoint x="490" y="370" as="sourcePoint" />
            <mxPoint x="540" y="320" as="targetPoint" />
          </mxGeometry>
        </mxCell>
        <mxCell id="HyvnY60XRrLfKeuSC4Jx-23" value="" style="endArrow=classic;html=1;rounded=0;edgeStyle=orthogonalEdgeStyle;elbow=vertical;curved=1;fontColor=#FFB366;strokeColor=#FFB366;" parent="HyvnY60XRrLfKeuSC4Jx-1" source="HyvnY60XRrLfKeuSC4Jx-4" target="HyvnY60XRrLfKeuSC4Jx-16" edge="1">
          <mxGeometry width="50" height="50" relative="1" as="geometry">
            <mxPoint x="430" y="320" as="sourcePoint" />
            <mxPoint x="540" y="320" as="targetPoint" />
            <Array as="points">
              <mxPoint x="420" y="280" />
              <mxPoint x="610" y="280" />
            </Array>
          </mxGeometry>
        </mxCell>
        <mxCell id="HyvnY60XRrLfKeuSC4Jx-24" value="Rings&lt;br&gt;rings.js" style="rounded=1;whiteSpace=wrap;html=1;fillColor=#B09500;fontColor=#FFFFFF;strokeColor=#B09500;" parent="HyvnY60XRrLfKeuSC4Jx-1" vertex="1">
          <mxGeometry x="40" y="440" width="120" height="40" as="geometry" />
        </mxCell>
        <mxCell id="HyvnY60XRrLfKeuSC4Jx-25" value="" style="endArrow=classic;html=1;rounded=0;curved=1;entryX=0.457;entryY=-0.051;entryDx=0;entryDy=0;entryPerimeter=0;edgeStyle=orthogonalEdgeStyle;fontColor=#FFB366;strokeColor=#FFB366;" parent="HyvnY60XRrLfKeuSC4Jx-1" source="HyvnY60XRrLfKeuSC4Jx-15" target="HyvnY60XRrLfKeuSC4Jx-24" edge="1">
          <mxGeometry width="50" height="50" relative="1" as="geometry">
            <mxPoint x="290" y="410" as="sourcePoint" />
            <mxPoint x="380" y="380" as="targetPoint" />
          </mxGeometry>
        </mxCell>
        <mxCell id="HyvnY60XRrLfKeuSC4Jx-26" style="edgeStyle=orthogonalEdgeStyle;curved=1;rounded=0;orthogonalLoop=1;jettySize=auto;html=1;entryX=0.5;entryY=1;entryDx=0;entryDy=0;startArrow=none;startFill=0;fontColor=#FFB366;strokeColor=#FFB366;" parent="HyvnY60XRrLfKeuSC4Jx-1" source="HyvnY60XRrLfKeuSC4Jx-27" target="HyvnY60XRrLfKeuSC4Jx-31" edge="1">
          <mxGeometry relative="1" as="geometry" />
        </mxCell>
        <mxCell id="HyvnY60XRrLfKeuSC4Jx-27" value="artists.js" style="rounded=1;whiteSpace=wrap;html=1;fillColor=#B09500;fontColor=#FFFFFF;strokeColor=#B09500;" parent="HyvnY60XRrLfKeuSC4Jx-1" vertex="1">
          <mxGeometry x="180" y="250" width="120" height="20" as="geometry" />
        </mxCell>
        <mxCell id="HyvnY60XRrLfKeuSC4Jx-28" value="" style="endArrow=classic;html=1;rounded=0;curved=1;edgeStyle=orthogonalEdgeStyle;fontColor=#FFB366;strokeColor=#FFB366;" parent="HyvnY60XRrLfKeuSC4Jx-1" source="HyvnY60XRrLfKeuSC4Jx-2" target="HyvnY60XRrLfKeuSC4Jx-7" edge="1">
          <mxGeometry width="50" height="50" relative="1" as="geometry">
            <mxPoint x="430" y="350" as="sourcePoint" />
            <mxPoint x="480" y="300" as="targetPoint" />
          </mxGeometry>
        </mxCell>
        <mxCell id="HyvnY60XRrLfKeuSC4Jx-29" value="" style="endArrow=classic;html=1;rounded=0;curved=1;edgeStyle=orthogonalEdgeStyle;fontColor=#FFB366;strokeColor=#FFB366;" parent="HyvnY60XRrLfKeuSC4Jx-1" source="HyvnY60XRrLfKeuSC4Jx-2" target="HyvnY60XRrLfKeuSC4Jx-10" edge="1">
          <mxGeometry width="50" height="50" relative="1" as="geometry">
            <mxPoint x="430" y="350" as="sourcePoint" />
            <mxPoint x="480" y="300" as="targetPoint" />
          </mxGeometry>
        </mxCell>
        <mxCell id="HyvnY60XRrLfKeuSC4Jx-30" value="" style="endArrow=classic;html=1;rounded=0;curved=1;edgeStyle=orthogonalEdgeStyle;fontColor=#FFB366;strokeColor=#FFB366;" parent="HyvnY60XRrLfKeuSC4Jx-1" source="HyvnY60XRrLfKeuSC4Jx-2" target="HyvnY60XRrLfKeuSC4Jx-4" edge="1">
          <mxGeometry width="50" height="50" relative="1" as="geometry">
            <mxPoint x="430" y="350" as="sourcePoint" />
            <mxPoint x="410" y="160" as="targetPoint" />
            <Array as="points">
              <mxPoint x="520" y="140" />
              <mxPoint x="450" y="140" />
            </Array>
          </mxGeometry>
        </mxCell>
        <mxCell id="HyvnY60XRrLfKeuSC4Jx-31" value="instanced.js" style="rounded=1;whiteSpace=wrap;html=1;fillColor=#B09500;fontColor=#FFFFFF;strokeColor=#B09500;" parent="HyvnY60XRrLfKeuSC4Jx-1" vertex="1">
          <mxGeometry x="80" y="190" width="120" height="20" as="geometry" />
        </mxCell>
        <mxCell id="HyvnY60XRrLfKeuSC4Jx-32" style="edgeStyle=orthogonalEdgeStyle;curved=1;rounded=0;orthogonalLoop=1;jettySize=auto;html=1;startArrow=none;startFill=0;elbow=vertical;fontColor=#FFB366;strokeColor=#FFB366;" parent="HyvnY60XRrLfKeuSC4Jx-1" source="HyvnY60XRrLfKeuSC4Jx-33" target="HyvnY60XRrLfKeuSC4Jx-34" edge="1">
          <mxGeometry relative="1" as="geometry" />
        </mxCell>
        <mxCell id="HyvnY60XRrLfKeuSC4Jx-33" value="Text&lt;br&gt;text.js" style="rounded=1;whiteSpace=wrap;html=1;fillColor=#B09500;fontColor=#FFFFFF;strokeColor=#B09500;" parent="HyvnY60XRrLfKeuSC4Jx-1" vertex="1">
          <mxGeometry x="390" y="440" width="120" height="40" as="geometry" />
        </mxCell>
        <mxCell id="HyvnY60XRrLfKeuSC4Jx-34" value="Texture&lt;br&gt;texture.js" style="rounded=1;whiteSpace=wrap;html=1;fillColor=#B09500;fontColor=#FFFFFF;strokeColor=#B09500;" parent="HyvnY60XRrLfKeuSC4Jx-1" vertex="1">
          <mxGeometry x="550" y="400" width="120" height="40" as="geometry" />
        </mxCell>
        <mxCell id="HyvnY60XRrLfKeuSC4Jx-35" value="" style="endArrow=classic;html=1;rounded=0;curved=1;edgeStyle=orthogonalEdgeStyle;fontColor=#FFB366;strokeColor=#FFB366;" parent="HyvnY60XRrLfKeuSC4Jx-1" target="HyvnY60XRrLfKeuSC4Jx-33" edge="1">
          <mxGeometry width="50" height="50" relative="1" as="geometry">
            <mxPoint x="320" y="360" as="sourcePoint" />
            <mxPoint x="380" y="330" as="targetPoint" />
            <Array as="points">
              <mxPoint x="320" y="410" />
              <mxPoint x="450" y="410" />
            </Array>
          </mxGeometry>
        </mxCell>
        <mxCell id="HyvnY60XRrLfKeuSC4Jx-36" value="" style="endArrow=classic;startArrow=classic;html=1;rounded=0;strokeColor=#FFB366;curved=1;elbow=vertical;edgeStyle=orthogonalEdgeStyle;fontColor=#FFB366;" parent="HyvnY60XRrLfKeuSC4Jx-1" source="HyvnY60XRrLfKeuSC4Jx-12" target="HyvnY60XRrLfKeuSC4Jx-10" edge="1">
          <mxGeometry width="50" height="50" relative="1" as="geometry">
            <mxPoint x="340" y="350" as="sourcePoint" />
            <mxPoint x="390" y="300" as="targetPoint" />
          </mxGeometry>
        </mxCell>
        <mxCell id="HyvnY60XRrLfKeuSC4Jx-37" value="Console&lt;br&gt;topbar.jsx" style="rounded=1;whiteSpace=wrap;html=1;fillColor=#1ba1e2;fontColor=#ffffff;strokeColor=#006EAF;" parent="HyvnY60XRrLfKeuSC4Jx-1" vertex="1">
          <mxGeometry x="65" y="90" width="120" height="40" as="geometry" />
        </mxCell>
        <mxCell id="HyvnY60XRrLfKeuSC4Jx-38" value="StatusBody&lt;br&gt;topbar.jsx" style="rounded=1;whiteSpace=wrap;html=1;fillColor=#1ba1e2;fontColor=#ffffff;strokeColor=#006EAF;" parent="HyvnY60XRrLfKeuSC4Jx-1" vertex="1">
          <mxGeometry x="65" y="40" width="120" height="40" as="geometry" />
        </mxCell>
      </root>
    </mxGraphModel>
  </diagram>
  <diagram id="4OoYdLRXKXt4HZj8AA9S" name="backhaul">
    <mxGraphModel dx="1420" dy="958" grid="1" gridSize="10" guides="1" tooltips="1" connect="1" arrows="1" fold="1" page="1" pageScale="1" pageWidth="1100" pageHeight="850" math="0" shadow="0">
      <root>
        <mxCell id="AlK3y2lZaFf-fK_Bh5hJ-0" />
        <mxCell id="AlK3y2lZaFf-fK_Bh5hJ-1" parent="AlK3y2lZaFf-fK_Bh5hJ-0" />
        <mxCell id="zMdFR6FNfY9rpCA_iUsw-4" style="edgeStyle=orthogonalEdgeStyle;curved=1;rounded=0;orthogonalLoop=1;jettySize=auto;html=1;fontFamily=Tahoma;fontColor=#007FFF;startArrow=none;startFill=0;endArrow=none;endFill=0;strokeColor=default;" parent="AlK3y2lZaFf-fK_Bh5hJ-1" source="AlK3y2lZaFf-fK_Bh5hJ-32" target="AlK3y2lZaFf-fK_Bh5hJ-45" edge="1">
          <mxGeometry relative="1" as="geometry" />
        </mxCell>
        <mxCell id="AlK3y2lZaFf-fK_Bh5hJ-32" value="Radar" style="rounded=1;whiteSpace=wrap;html=1;fillColor=#008a00;fontColor=#ffffff;strokeColor=#005700;" parent="AlK3y2lZaFf-fK_Bh5hJ-1" vertex="1">
          <mxGeometry x="40" y="60" width="60" height="30" as="geometry" />
        </mxCell>
        <mxCell id="zMdFR6FNfY9rpCA_iUsw-3" style="edgeStyle=orthogonalEdgeStyle;curved=1;rounded=0;orthogonalLoop=1;jettySize=auto;html=1;fontFamily=Tahoma;fontColor=#007FFF;startArrow=none;startFill=0;endArrow=none;endFill=0;strokeColor=default;" parent="AlK3y2lZaFf-fK_Bh5hJ-1" source="AlK3y2lZaFf-fK_Bh5hJ-42" target="AlK3y2lZaFf-fK_Bh5hJ-62" edge="1">
          <mxGeometry relative="1" as="geometry" />
        </mxCell>
        <mxCell id="AlK3y2lZaFf-fK_Bh5hJ-42" value="Radar" style="rounded=1;whiteSpace=wrap;html=1;fillColor=#008a00;fontColor=#ffffff;strokeColor=#005700;" parent="AlK3y2lZaFf-fK_Bh5hJ-1" vertex="1">
          <mxGeometry x="40" y="240" width="60" height="30" as="geometry" />
        </mxCell>
        <mxCell id="AlK3y2lZaFf-fK_Bh5hJ-67" style="edgeStyle=orthogonalEdgeStyle;rounded=0;orthogonalLoop=1;jettySize=auto;html=1;startArrow=none;startFill=0;endArrow=none;endFill=0;strokeColor=default;curved=1;entryX=0.009;entryY=0.276;entryDx=0;entryDy=0;entryPerimeter=0;" parent="AlK3y2lZaFf-fK_Bh5hJ-1" source="AlK3y2lZaFf-fK_Bh5hJ-45" target="AlK3y2lZaFf-fK_Bh5hJ-66" edge="1">
          <mxGeometry relative="1" as="geometry" />
        </mxCell>
        <mxCell id="AlK3y2lZaFf-fK_Bh5hJ-45" value="frontend.consumer.Radar" style="rounded=1;whiteSpace=wrap;html=1;fillColor=#6d8764;fontColor=#ffffff;strokeColor=#3A5431;" parent="AlK3y2lZaFf-fK_Bh5hJ-1" vertex="1">
          <mxGeometry x="130" y="60" width="160" height="30" as="geometry" />
        </mxCell>
        <mxCell id="AlK3y2lZaFf-fK_Bh5hJ-46" style="edgeStyle=orthogonalEdgeStyle;rounded=0;orthogonalLoop=1;jettySize=auto;html=1;strokeColor=default;endArrow=none;endFill=0;startArrow=none;startFill=0;curved=1;" parent="AlK3y2lZaFf-fK_Bh5hJ-1" source="AlK3y2lZaFf-fK_Bh5hJ-45" target="AlK3y2lZaFf-fK_Bh5hJ-47" edge="1">
          <mxGeometry relative="1" as="geometry" />
        </mxCell>
        <mxCell id="AlK3y2lZaFf-fK_Bh5hJ-47" value="runloop" style="ellipse;shape=doubleEllipse;whiteSpace=wrap;html=1;aspect=fixed;" parent="AlK3y2lZaFf-fK_Bh5hJ-1" vertex="1">
          <mxGeometry x="190" y="110" width="60" height="60" as="geometry" />
        </mxCell>
        <mxCell id="AlK3y2lZaFf-fK_Bh5hJ-60" value="runloop" style="ellipse;shape=doubleEllipse;whiteSpace=wrap;html=1;aspect=fixed;" parent="AlK3y2lZaFf-fK_Bh5hJ-1" vertex="1">
          <mxGeometry x="200" y="290" width="60" height="60" as="geometry" />
        </mxCell>
        <mxCell id="AlK3y2lZaFf-fK_Bh5hJ-61" style="edgeStyle=orthogonalEdgeStyle;rounded=0;orthogonalLoop=1;jettySize=auto;html=1;strokeColor=default;endArrow=none;endFill=0;startArrow=none;startFill=0;curved=1;" parent="AlK3y2lZaFf-fK_Bh5hJ-1" source="AlK3y2lZaFf-fK_Bh5hJ-62" target="AlK3y2lZaFf-fK_Bh5hJ-60" edge="1">
          <mxGeometry relative="1" as="geometry" />
        </mxCell>
        <mxCell id="AlK3y2lZaFf-fK_Bh5hJ-68" style="edgeStyle=orthogonalEdgeStyle;rounded=0;orthogonalLoop=1;jettySize=auto;html=1;startArrow=none;startFill=0;endArrow=none;endFill=0;strokeColor=default;curved=1;entryX=0.001;entryY=0.714;entryDx=0;entryDy=0;entryPerimeter=0;" parent="AlK3y2lZaFf-fK_Bh5hJ-1" source="AlK3y2lZaFf-fK_Bh5hJ-62" target="AlK3y2lZaFf-fK_Bh5hJ-66" edge="1">
          <mxGeometry relative="1" as="geometry" />
        </mxCell>
        <mxCell id="AlK3y2lZaFf-fK_Bh5hJ-62" value="frontend.consumer.Radar" style="rounded=1;whiteSpace=wrap;html=1;fillColor=#6d8764;fontColor=#ffffff;strokeColor=#3A5431;" parent="AlK3y2lZaFf-fK_Bh5hJ-1" vertex="1">
          <mxGeometry x="130" y="240" width="160" height="30" as="geometry" />
        </mxCell>
        <mxCell id="AlK3y2lZaFf-fK_Bh5hJ-65" style="edgeStyle=orthogonalEdgeStyle;rounded=0;orthogonalLoop=1;jettySize=auto;html=1;startArrow=none;startFill=0;endArrow=none;endFill=0;strokeColor=default;" parent="AlK3y2lZaFf-fK_Bh5hJ-1" source="AlK3y2lZaFf-fK_Bh5hJ-63" target="AlK3y2lZaFf-fK_Bh5hJ-64" edge="1">
          <mxGeometry relative="1" as="geometry" />
        </mxCell>
        <mxCell id="AlK3y2lZaFf-fK_Bh5hJ-71" style="edgeStyle=orthogonalEdgeStyle;curved=1;rounded=0;orthogonalLoop=1;jettySize=auto;html=1;startArrow=none;startFill=0;endArrow=none;endFill=0;strokeColor=default;entryX=1;entryY=0.25;entryDx=0;entryDy=0;" parent="AlK3y2lZaFf-fK_Bh5hJ-1" source="AlK3y2lZaFf-fK_Bh5hJ-63" target="AlK3y2lZaFf-fK_Bh5hJ-66" edge="1">
          <mxGeometry relative="1" as="geometry" />
        </mxCell>
        <mxCell id="AlK3y2lZaFf-fK_Bh5hJ-63" value="frontend.consumer.User" style="rounded=1;whiteSpace=wrap;html=1;fillColor=#647687;fontColor=#ffffff;strokeColor=#314354;" parent="AlK3y2lZaFf-fK_Bh5hJ-1" vertex="1">
          <mxGeometry x="480" y="60" width="160" height="30" as="geometry" />
        </mxCell>
        <mxCell id="AlK3y2lZaFf-fK_Bh5hJ-64" value="User" style="rounded=1;whiteSpace=wrap;html=1;fillColor=#0050ef;fontColor=#ffffff;strokeColor=#001DBC;" parent="AlK3y2lZaFf-fK_Bh5hJ-1" vertex="1">
          <mxGeometry x="660" y="60" width="60" height="30" as="geometry" />
        </mxCell>
        <mxCell id="AlK3y2lZaFf-fK_Bh5hJ-66" value="Backhaul" style="shape=process;whiteSpace=wrap;html=1;backgroundOutline=1;" parent="AlK3y2lZaFf-fK_Bh5hJ-1" vertex="1">
          <mxGeometry x="330" y="120" width="100" height="80" as="geometry" />
        </mxCell>
        <mxCell id="AlK3y2lZaFf-fK_Bh5hJ-75" style="edgeStyle=orthogonalEdgeStyle;curved=1;rounded=0;orthogonalLoop=1;jettySize=auto;html=1;startArrow=none;startFill=0;endArrow=none;endFill=0;strokeColor=default;entryX=1.002;entryY=0.58;entryDx=0;entryDy=0;entryPerimeter=0;" parent="AlK3y2lZaFf-fK_Bh5hJ-1" source="AlK3y2lZaFf-fK_Bh5hJ-72" target="AlK3y2lZaFf-fK_Bh5hJ-66" edge="1">
          <mxGeometry relative="1" as="geometry">
            <mxPoint x="470" y="160" as="targetPoint" />
          </mxGeometry>
        </mxCell>
        <mxCell id="AlK3y2lZaFf-fK_Bh5hJ-72" value="frontend.consumer.User" style="rounded=1;whiteSpace=wrap;html=1;fillColor=#647687;fontColor=#ffffff;strokeColor=#314354;" parent="AlK3y2lZaFf-fK_Bh5hJ-1" vertex="1">
          <mxGeometry x="500" y="190" width="160" height="30" as="geometry" />
        </mxCell>
        <mxCell id="AlK3y2lZaFf-fK_Bh5hJ-73" style="edgeStyle=orthogonalEdgeStyle;rounded=0;orthogonalLoop=1;jettySize=auto;html=1;startArrow=none;startFill=0;endArrow=none;endFill=0;strokeColor=default;" parent="AlK3y2lZaFf-fK_Bh5hJ-1" source="AlK3y2lZaFf-fK_Bh5hJ-72" target="AlK3y2lZaFf-fK_Bh5hJ-74" edge="1">
          <mxGeometry relative="1" as="geometry" />
        </mxCell>
        <mxCell id="AlK3y2lZaFf-fK_Bh5hJ-74" value="User" style="rounded=1;whiteSpace=wrap;html=1;fillColor=#0050ef;fontColor=#ffffff;strokeColor=#001DBC;" parent="AlK3y2lZaFf-fK_Bh5hJ-1" vertex="1">
          <mxGeometry x="690" y="190" width="60" height="30" as="geometry" />
        </mxCell>
        <mxCell id="AlK3y2lZaFf-fK_Bh5hJ-80" style="edgeStyle=orthogonalEdgeStyle;curved=1;rounded=0;orthogonalLoop=1;jettySize=auto;html=1;startArrow=none;startFill=0;endArrow=none;endFill=0;strokeColor=default;entryX=1;entryY=0.75;entryDx=0;entryDy=0;" parent="AlK3y2lZaFf-fK_Bh5hJ-1" source="AlK3y2lZaFf-fK_Bh5hJ-77" target="AlK3y2lZaFf-fK_Bh5hJ-66" edge="1">
          <mxGeometry relative="1" as="geometry" />
        </mxCell>
        <mxCell id="AlK3y2lZaFf-fK_Bh5hJ-77" value="frontend.consumer.User" style="rounded=1;whiteSpace=wrap;html=1;fillColor=#647687;fontColor=#ffffff;strokeColor=#314354;" parent="AlK3y2lZaFf-fK_Bh5hJ-1" vertex="1">
          <mxGeometry x="480" y="240" width="160" height="30" as="geometry" />
        </mxCell>
        <mxCell id="AlK3y2lZaFf-fK_Bh5hJ-78" style="edgeStyle=orthogonalEdgeStyle;rounded=0;orthogonalLoop=1;jettySize=auto;html=1;startArrow=none;startFill=0;endArrow=none;endFill=0;strokeColor=default;" parent="AlK3y2lZaFf-fK_Bh5hJ-1" source="AlK3y2lZaFf-fK_Bh5hJ-77" target="AlK3y2lZaFf-fK_Bh5hJ-79" edge="1">
          <mxGeometry relative="1" as="geometry" />
        </mxCell>
        <mxCell id="AlK3y2lZaFf-fK_Bh5hJ-79" value="User" style="rounded=1;whiteSpace=wrap;html=1;fillColor=#0050ef;fontColor=#ffffff;strokeColor=#001DBC;" parent="AlK3y2lZaFf-fK_Bh5hJ-1" vertex="1">
          <mxGeometry x="660" y="240" width="60" height="30" as="geometry" />
        </mxCell>
        <mxCell id="AlK3y2lZaFf-fK_Bh5hJ-82" style="edgeStyle=orthogonalEdgeStyle;curved=1;rounded=0;orthogonalLoop=1;jettySize=auto;html=1;entryX=1.002;entryY=0.43;entryDx=0;entryDy=0;entryPerimeter=0;startArrow=none;startFill=0;endArrow=none;endFill=0;strokeColor=default;" parent="AlK3y2lZaFf-fK_Bh5hJ-1" source="AlK3y2lZaFf-fK_Bh5hJ-81" target="AlK3y2lZaFf-fK_Bh5hJ-66" edge="1">
          <mxGeometry relative="1" as="geometry" />
        </mxCell>
        <mxCell id="AlK3y2lZaFf-fK_Bh5hJ-81" value="frontend.consumer.User" style="rounded=1;whiteSpace=wrap;html=1;fillColor=#647687;fontColor=#ffffff;strokeColor=#314354;" parent="AlK3y2lZaFf-fK_Bh5hJ-1" vertex="1">
          <mxGeometry x="500" y="115" width="160" height="30" as="geometry" />
        </mxCell>
        <mxCell id="AlK3y2lZaFf-fK_Bh5hJ-84" style="edgeStyle=orthogonalEdgeStyle;curved=1;rounded=0;orthogonalLoop=1;jettySize=auto;html=1;startArrow=none;startFill=0;endArrow=none;endFill=0;strokeColor=default;" parent="AlK3y2lZaFf-fK_Bh5hJ-1" source="AlK3y2lZaFf-fK_Bh5hJ-83" target="AlK3y2lZaFf-fK_Bh5hJ-81" edge="1">
          <mxGeometry relative="1" as="geometry" />
        </mxCell>
        <mxCell id="AlK3y2lZaFf-fK_Bh5hJ-83" value="User" style="rounded=1;whiteSpace=wrap;html=1;fillColor=#0050ef;fontColor=#ffffff;strokeColor=#001DBC;" parent="AlK3y2lZaFf-fK_Bh5hJ-1" vertex="1">
          <mxGeometry x="690" y="115" width="60" height="30" as="geometry" />
        </mxCell>
      </root>
    </mxGraphModel>
  </diagram>
  <diagram id="slO30-IlRVTLRI6-r-4Q" name="events">
    <mxGraphModel dx="1420" dy="958" grid="1" gridSize="10" guides="1" tooltips="1" connect="1" arrows="1" fold="1" page="1" pageScale="1" pageWidth="1100" pageHeight="850" math="0" shadow="0">
      <root>
        <mxCell id="0" />
        <mxCell id="1" parent="0" />
        <mxCell id="JSVDOdbcR01fDy3UXJGy-13" value="init a runloop" style="text;html=1;strokeColor=none;fillColor=none;align=left;verticalAlign=middle;whiteSpace=wrap;rounded=0;" parent="1" vertex="1">
          <mxGeometry x="220" y="395" width="140" height="30" as="geometry" />
        </mxCell>
        <mxCell id="DsLyBvwaoFQymfHfmCT6-2" value="User" style="rounded=1;whiteSpace=wrap;html=1;fillColor=#0050ef;fontColor=#ffffff;strokeColor=#001DBC;" parent="1" vertex="1">
          <mxGeometry x="40" y="640" width="160" height="30" as="geometry" />
        </mxCell>
        <mxCell id="DsLyBvwaoFQymfHfmCT6-4" value="frontend.consumers.User" style="rounded=1;whiteSpace=wrap;html=1;fillColor=#647687;fontColor=#ffffff;strokeColor=#314354;" parent="1" vertex="1">
          <mxGeometry x="40" y="680" width="160" height="30" as="geometry" />
        </mxCell>
        <mxCell id="DsLyBvwaoFQymfHfmCT6-6" value="Backhaul" style="shape=process;whiteSpace=wrap;html=1;backgroundOutline=1;" parent="1" vertex="1">
          <mxGeometry x="40" y="720" width="160" height="30" as="geometry" />
        </mxCell>
        <mxCell id="DsLyBvwaoFQymfHfmCT6-23" value="connects to RadarHub" style="text;html=1;strokeColor=none;fillColor=none;align=left;verticalAlign=middle;whiteSpace=wrap;rounded=0;" parent="1" vertex="1">
          <mxGeometry x="220" y="640" width="180" height="30" as="geometry" />
        </mxCell>
        <mxCell id="DsLyBvwaoFQymfHfmCT6-24" value="connect()" style="text;html=1;strokeColor=none;fillColor=none;align=left;verticalAlign=middle;whiteSpace=wrap;rounded=0;fontFamily=Tahoma;fontColor=#007FFF;fontStyle=0;labelBorderColor=none;" parent="1" vertex="1">
          <mxGeometry x="220" y="680" width="100" height="30" as="geometry" />
        </mxCell>
        <mxCell id="DsLyBvwaoFQymfHfmCT6-25" value="acceptUser()" style="text;html=1;strokeColor=none;fillColor=none;align=left;verticalAlign=middle;whiteSpace=wrap;rounded=0;fontFamily=Tahoma;fontColor=#007FFF;fontStyle=0;labelBorderColor=none;" parent="1" vertex="1">
          <mxGeometry x="220" y="760" width="100" height="30" as="geometry" />
        </mxCell>
        <mxCell id="DsLyBvwaoFQymfHfmCT6-33" value="messageRadar()" style="text;html=1;strokeColor=none;fillColor=none;align=left;verticalAlign=middle;whiteSpace=wrap;rounded=0;fontFamily=Tahoma;fontColor=#007FFF;fontStyle=0;labelBorderColor=none;" parent="1" vertex="1">
          <mxGeometry x="660" y="530" width="100" height="30" as="geometry" />
        </mxCell>
        <mxCell id="KjQpBQ8RLEwinji2lJXe-1" value="Radar" style="rounded=1;whiteSpace=wrap;html=1;fillColor=#008a00;fontColor=#ffffff;strokeColor=#005700;" parent="1" vertex="1">
          <mxGeometry x="40" y="80" width="160" height="30" as="geometry" />
        </mxCell>
        <mxCell id="KjQpBQ8RLEwinji2lJXe-5" value="runloop" style="ellipse;shape=doubleEllipse;whiteSpace=wrap;html=1;aspect=fixed;" parent="1" vertex="1">
          <mxGeometry x="90" y="380" width="60" height="60" as="geometry" />
        </mxCell>
        <mxCell id="KjQpBQ8RLEwinji2lJXe-18" value="User Connect" style="text;html=1;strokeColor=none;fillColor=none;align=center;verticalAlign=middle;whiteSpace=wrap;rounded=0;fontStyle=1;fontSize=14;" parent="1" vertex="1">
          <mxGeometry x="40" y="600" width="160" height="30" as="geometry" />
        </mxCell>
        <mxCell id="KjQpBQ8RLEwinji2lJXe-19" value="Radar Connect" style="text;html=1;strokeColor=none;fillColor=none;align=center;verticalAlign=middle;whiteSpace=wrap;rounded=0;fontStyle=1;fontSize=14;" parent="1" vertex="1">
          <mxGeometry x="40" y="40" width="160" height="30" as="geometry" />
        </mxCell>
        <mxCell id="KjQpBQ8RLEwinji2lJXe-20" value="Radar to User(s)" style="text;html=1;strokeColor=none;fillColor=none;align=center;verticalAlign=middle;whiteSpace=wrap;rounded=0;fontStyle=1;fontSize=14;" parent="1" vertex="1">
          <mxGeometry x="480" y="40" width="160" height="30" as="geometry" />
        </mxCell>
        <mxCell id="KjQpBQ8RLEwinji2lJXe-21" value="radarConnect()" style="text;html=1;strokeColor=none;fillColor=none;align=left;verticalAlign=middle;whiteSpace=wrap;rounded=0;fontFamily=Tahoma;fontColor=#007FFF;fontStyle=0;labelBorderColor=none;" parent="1" vertex="1">
          <mxGeometry x="220" y="340" width="100" height="30" as="geometry" />
        </mxCell>
        <mxCell id="KjQpBQ8RLEwinji2lJXe-24" value="receive(bytes_data=...)" style="text;html=1;strokeColor=none;fillColor=none;align=left;verticalAlign=middle;whiteSpace=wrap;rounded=0;fontFamily=Tahoma;fontColor=#007FFF;" parent="1" vertex="1">
          <mxGeometry x="660" y="120" width="100" height="30" as="geometry" />
        </mxCell>
        <mxCell id="Iao7xpi4PQk2F8vrUq7w-6" value="frontend.consumers.Radar" style="rounded=1;whiteSpace=wrap;html=1;fillColor=#6d8764;fontColor=#ffffff;strokeColor=#3A5431;" parent="1" vertex="1">
          <mxGeometry x="40" y="120" width="160" height="30" as="geometry" />
        </mxCell>
        <mxCell id="Iao7xpi4PQk2F8vrUq7w-8" value="frontend.consumers.Radar" style="rounded=1;whiteSpace=wrap;html=1;fillColor=#6d8764;fontColor=#ffffff;strokeColor=#3A5431;" parent="1" vertex="1">
          <mxGeometry x="480" y="610" width="160" height="30" as="geometry" />
        </mxCell>
        <mxCell id="Iao7xpi4PQk2F8vrUq7w-10" value="frontend.consumers.Radar" style="rounded=1;whiteSpace=wrap;html=1;fillColor=#6d8764;fontColor=#ffffff;strokeColor=#3A5431;" parent="1" vertex="1">
          <mxGeometry x="480" y="530" width="160" height="30" as="geometry" />
        </mxCell>
        <mxCell id="Iao7xpi4PQk2F8vrUq7w-12" value="frontend.consumers.User" style="rounded=1;whiteSpace=wrap;html=1;fillColor=#647687;fontColor=#ffffff;strokeColor=#314354;" parent="1" vertex="1">
          <mxGeometry x="480" y="690" width="160" height="30" as="geometry" />
        </mxCell>
        <mxCell id="Iao7xpi4PQk2F8vrUq7w-13" value="userInit()" style="text;html=1;strokeColor=none;fillColor=none;align=left;verticalAlign=middle;whiteSpace=wrap;rounded=0;fontFamily=Tahoma;fontColor=#007FFF;fontStyle=0;labelBorderColor=none;" parent="1" vertex="1">
          <mxGeometry x="220" y="720" width="100" height="30" as="geometry" />
        </mxCell>
        <mxCell id="Iao7xpi4PQk2F8vrUq7w-15" value="frontend.consumers.Radar" style="rounded=1;whiteSpace=wrap;html=1;fillColor=#6d8764;fontColor=#ffffff;strokeColor=#3A5431;" parent="1" vertex="1">
          <mxGeometry x="40" y="450" width="160" height="30" as="geometry" />
        </mxCell>
        <mxCell id="Iao7xpi4PQk2F8vrUq7w-16" value="frontend.consumers.User" style="rounded=1;whiteSpace=wrap;html=1;fillColor=#647687;fontColor=#ffffff;strokeColor=#314354;" parent="1" vertex="1">
          <mxGeometry x="40" y="760" width="160" height="30" as="geometry" />
        </mxCell>
        <mxCell id="Iao7xpi4PQk2F8vrUq7w-19" value="User" style="rounded=1;whiteSpace=wrap;html=1;fillColor=#0050ef;fontColor=#ffffff;strokeColor=#001DBC;" parent="1" vertex="1">
          <mxGeometry x="480" y="410" width="160" height="30" as="geometry" />
        </mxCell>
        <mxCell id="Iao7xpi4PQk2F8vrUq7w-21" value="Radar" style="rounded=1;whiteSpace=wrap;html=1;fillColor=#008a00;fontColor=#ffffff;strokeColor=#005700;" parent="1" vertex="1">
          <mxGeometry x="480" y="570" width="160" height="30" as="geometry" />
        </mxCell>
        <mxCell id="Iao7xpi4PQk2F8vrUq7w-22" value="frontend.consumers.User" style="rounded=1;whiteSpace=wrap;html=1;fillColor=#647687;fontColor=#ffffff;strokeColor=#314354;" parent="1" vertex="1">
          <mxGeometry x="480" y="450" width="160" height="30" as="geometry" />
        </mxCell>
        <mxCell id="Iao7xpi4PQk2F8vrUq7w-23" value="User to Radar" style="text;html=1;strokeColor=none;fillColor=none;align=center;verticalAlign=middle;whiteSpace=wrap;rounded=0;fontStyle=1;fontSize=14;" parent="1" vertex="1">
          <mxGeometry x="480" y="370" width="160" height="30" as="geometry" />
        </mxCell>
        <mxCell id="Iao7xpi4PQk2F8vrUq7w-26" value="userMessage()" style="text;html=1;strokeColor=none;fillColor=none;align=left;verticalAlign=middle;whiteSpace=wrap;rounded=0;fontFamily=Tahoma;fontColor=#007FFF;fontStyle=0;labelBorderColor=none;" parent="1" vertex="1">
          <mxGeometry x="660" y="490" width="170" height="30" as="geometry" />
        </mxCell>
        <mxCell id="Iao7xpi4PQk2F8vrUq7w-27" value="receive(text_data=...)" style="text;html=1;strokeColor=none;fillColor=none;align=left;verticalAlign=middle;whiteSpace=wrap;rounded=0;fontFamily=Tahoma;fontColor=#007FFF;fontStyle=0;labelBorderColor=none;" parent="1" vertex="1">
          <mxGeometry x="660" y="450" width="180" height="30" as="geometry" />
        </mxCell>
        <mxCell id="Iao7xpi4PQk2F8vrUq7w-28" value="do something with the payload" style="text;html=1;strokeColor=none;fillColor=none;align=left;verticalAlign=middle;whiteSpace=wrap;rounded=0;" parent="1" vertex="1">
          <mxGeometry x="660" y="570" width="180" height="30" as="geometry" />
        </mxCell>
        <mxCell id="Iao7xpi4PQk2F8vrUq7w-29" value="receive(bytes_data=...)" style="text;html=1;strokeColor=none;fillColor=none;align=left;verticalAlign=middle;whiteSpace=wrap;rounded=0;fontFamily=Tahoma;fontColor=#007FFF;fontStyle=0;labelBorderColor=none;" parent="1" vertex="1">
          <mxGeometry x="660" y="610" width="180" height="30" as="geometry" />
        </mxCell>
        <mxCell id="Iao7xpi4PQk2F8vrUq7w-31" value="radarMessage()" style="text;html=1;strokeColor=none;fillColor=none;align=left;verticalAlign=middle;whiteSpace=wrap;rounded=0;fontFamily=Tahoma;fontColor=#007FFF;fontStyle=0;labelBorderColor=none;" parent="1" vertex="1">
          <mxGeometry x="660" y="650" width="100" height="30" as="geometry" />
        </mxCell>
        <mxCell id="Iao7xpi4PQk2F8vrUq7w-32" value="User" style="rounded=1;whiteSpace=wrap;html=1;fillColor=#0050ef;fontColor=#ffffff;strokeColor=#001DBC;" parent="1" vertex="1">
          <mxGeometry x="480" y="730" width="160" height="30" as="geometry" />
        </mxCell>
        <mxCell id="Iao7xpi4PQk2F8vrUq7w-33" value="messageUser()" style="text;html=1;strokeColor=none;fillColor=none;align=left;verticalAlign=middle;whiteSpace=wrap;rounded=0;fontFamily=Tahoma;fontColor=#007FFF;fontStyle=0;labelBorderColor=none;" parent="1" vertex="1">
          <mxGeometry x="660" y="690" width="100" height="30" as="geometry" />
        </mxCell>
        <mxCell id="Iao7xpi4PQk2F8vrUq7w-35" value="radarInit()" style="text;html=1;strokeColor=none;fillColor=none;align=left;verticalAlign=middle;whiteSpace=wrap;rounded=0;fontFamily=Tahoma;fontColor=#007FFF;fontStyle=0;labelBorderColor=none;" parent="1" vertex="1">
          <mxGeometry x="220" y="160" width="180" height="30" as="geometry" />
        </mxCell>
        <mxCell id="Iao7xpi4PQk2F8vrUq7w-40" value="Backhaul" style="shape=process;whiteSpace=wrap;html=1;backgroundOutline=1;" parent="1" vertex="1">
          <mxGeometry x="480" y="490" width="160" height="30" as="geometry" />
        </mxCell>
        <mxCell id="Iao7xpi4PQk2F8vrUq7w-41" value="Backhaul" style="shape=process;whiteSpace=wrap;html=1;backgroundOutline=1;" parent="1" vertex="1">
          <mxGeometry x="480" y="650" width="160" height="30" as="geometry" />
        </mxCell>
        <mxCell id="Iao7xpi4PQk2F8vrUq7w-46" value="Backhaul" style="shape=process;whiteSpace=wrap;html=1;backgroundOutline=1;" parent="1" vertex="1">
          <mxGeometry x="40" y="160" width="160" height="30" as="geometry" />
        </mxCell>
        <mxCell id="Iao7xpi4PQk2F8vrUq7w-47" value="connect()" style="text;html=1;strokeColor=none;fillColor=none;align=left;verticalAlign=middle;whiteSpace=wrap;rounded=0;fontFamily=Tahoma;fontColor=#007FFF;fontStyle=0;labelBorderColor=none;" parent="1" vertex="1">
          <mxGeometry x="220" y="120" width="180" height="30" as="geometry" />
        </mxCell>
        <mxCell id="Iao7xpi4PQk2F8vrUq7w-48" value="frontend.consumers.Radar" style="rounded=1;whiteSpace=wrap;html=1;fillColor=#6d8764;fontColor=#ffffff;strokeColor=#3A5431;" parent="1" vertex="1">
          <mxGeometry x="40" y="200" width="160" height="30" as="geometry" />
        </mxCell>
        <mxCell id="Iao7xpi4PQk2F8vrUq7w-49" value="acceptRadar()" style="text;html=1;strokeColor=none;fillColor=none;align=left;verticalAlign=middle;whiteSpace=wrap;rounded=0;fontFamily=Tahoma;fontColor=#007FFF;fontStyle=0;labelBorderColor=none;" parent="1" vertex="1">
          <mxGeometry x="220" y="200" width="180" height="30" as="geometry" />
        </mxCell>
        <mxCell id="Iao7xpi4PQk2F8vrUq7w-50" value="Radar" style="rounded=1;whiteSpace=wrap;html=1;fillColor=#008a00;fontColor=#ffffff;strokeColor=#005700;" parent="1" vertex="1">
          <mxGeometry x="40" y="260" width="160" height="30" as="geometry" />
        </mxCell>
        <mxCell id="Iao7xpi4PQk2F8vrUq7w-51" value="b&#39;{command: &quot;radarConnect&quot; ...}&#39;" style="text;html=1;strokeColor=none;fillColor=none;align=left;verticalAlign=middle;whiteSpace=wrap;rounded=0;fontSize=12;" parent="1" vertex="1">
          <mxGeometry x="220" y="260" width="180" height="30" as="geometry" />
        </mxCell>
        <mxCell id="Iao7xpi4PQk2F8vrUq7w-52" value="frontend.consumers.Radar" style="rounded=1;whiteSpace=wrap;html=1;fillColor=#6d8764;fontColor=#ffffff;strokeColor=#3A5431;" parent="1" vertex="1">
          <mxGeometry x="40" y="300" width="160" height="30" as="geometry" />
        </mxCell>
        <mxCell id="Iao7xpi4PQk2F8vrUq7w-53" value="receive(bytes_data=...)" style="text;html=1;strokeColor=none;fillColor=none;align=left;verticalAlign=middle;whiteSpace=wrap;rounded=0;fontFamily=Tahoma;fontColor=#007FFF;fontStyle=0;labelBorderColor=none;" parent="1" vertex="1">
          <mxGeometry x="220" y="300" width="180" height="30" as="geometry" />
        </mxCell>
        <mxCell id="Iao7xpi4PQk2F8vrUq7w-54" value="..." style="text;html=1;strokeColor=none;fillColor=none;align=center;verticalAlign=middle;whiteSpace=wrap;rounded=0;" parent="1" vertex="1">
          <mxGeometry x="40" y="230" width="160" height="30" as="geometry" />
        </mxCell>
        <mxCell id="Iao7xpi4PQk2F8vrUq7w-55" value="Backhaul" style="shape=process;whiteSpace=wrap;html=1;backgroundOutline=1;" parent="1" vertex="1">
          <mxGeometry x="40" y="340" width="160" height="30" as="geometry" />
        </mxCell>
        <mxCell id="Iao7xpi4PQk2F8vrUq7w-57" value="messageRadar()" style="text;html=1;strokeColor=none;fillColor=none;align=left;verticalAlign=middle;whiteSpace=wrap;rounded=0;fontFamily=Tahoma;fontColor=#007FFF;fontStyle=0;labelBorderColor=none;" parent="1" vertex="1">
          <mxGeometry x="220" y="450" width="100" height="30" as="geometry" />
        </mxCell>
        <mxCell id="Iao7xpi4PQk2F8vrUq7w-58" value="Radar" style="rounded=1;whiteSpace=wrap;html=1;fillColor=#008a00;fontColor=#ffffff;strokeColor=#005700;" parent="1" vertex="1">
          <mxGeometry x="480" y="80" width="160" height="30" as="geometry" />
        </mxCell>
        <mxCell id="Iao7xpi4PQk2F8vrUq7w-59" value="frontend.consumers.Radar" style="rounded=1;whiteSpace=wrap;html=1;fillColor=#6d8764;fontColor=#ffffff;strokeColor=#3A5431;" parent="1" vertex="1">
          <mxGeometry x="480" y="120" width="160" height="30" as="geometry" />
        </mxCell>
        <mxCell id="Iao7xpi4PQk2F8vrUq7w-60" value="Backhaul" style="shape=process;whiteSpace=wrap;html=1;backgroundOutline=1;" parent="1" vertex="1">
          <mxGeometry x="480" y="160" width="160" height="30" as="geometry" />
        </mxCell>
        <mxCell id="Iao7xpi4PQk2F8vrUq7w-61" value="radarMessage()" style="text;html=1;strokeColor=none;fillColor=none;align=left;verticalAlign=middle;whiteSpace=wrap;rounded=0;fontFamily=Tahoma;fontColor=#007FFF;fontStyle=0;labelBorderColor=none;" parent="1" vertex="1">
          <mxGeometry x="660" y="160" width="100" height="30" as="geometry" />
        </mxCell>
        <mxCell id="Iao7xpi4PQk2F8vrUq7w-62" value="frontend.consumers.User" style="rounded=1;whiteSpace=wrap;html=1;fillColor=#647687;fontColor=#ffffff;strokeColor=#314354;" parent="1" vertex="1">
          <mxGeometry x="480" y="200" width="160" height="30" as="geometry" />
        </mxCell>
        <mxCell id="Iao7xpi4PQk2F8vrUq7w-63" value="messageUser()" style="text;html=1;strokeColor=none;fillColor=none;align=left;verticalAlign=middle;whiteSpace=wrap;rounded=0;fontFamily=Tahoma;fontColor=#007FFF;fontStyle=0;labelBorderColor=none;" parent="1" vertex="1">
          <mxGeometry x="660" y="200" width="100" height="30" as="geometry" />
        </mxCell>
        <mxCell id="Iao7xpi4PQk2F8vrUq7w-64" value="User" style="rounded=1;whiteSpace=wrap;html=1;fillColor=#0050ef;fontColor=#ffffff;strokeColor=#001DBC;" parent="1" vertex="1">
          <mxGeometry x="480" y="240" width="160" height="30" as="geometry" />
        </mxCell>
        <mxCell id="Iao7xpi4PQk2F8vrUq7w-66" value="User" style="rounded=1;whiteSpace=wrap;html=1;fillColor=#0050ef;fontColor=#ffffff;strokeColor=#001DBC;" parent="1" vertex="1">
          <mxGeometry x="40" y="800" width="160" height="30" as="geometry" />
        </mxCell>
        <mxCell id="1H6XDZO_SaMHIrr3DRuN-1" value="{command: &quot;radarMessage&quot; ...}" style="text;html=1;strokeColor=none;fillColor=none;align=left;verticalAlign=middle;whiteSpace=wrap;rounded=0;fontSize=12;" parent="1" vertex="1">
          <mxGeometry x="660" y="410" width="180" height="30" as="geometry" />
        </mxCell>
        <mxCell id="1H6XDZO_SaMHIrr3DRuN-2" value="sends a binary payload" style="text;html=1;strokeColor=none;fillColor=none;align=left;verticalAlign=middle;whiteSpace=wrap;rounded=0;fontSize=12;" parent="1" vertex="1">
          <mxGeometry x="660" y="80" width="160" height="30" as="geometry" />
        </mxCell>
        <mxCell id="1H6XDZO_SaMHIrr3DRuN-3" value="receives a binary payload" style="text;html=1;strokeColor=none;fillColor=none;align=left;verticalAlign=middle;whiteSpace=wrap;rounded=0;fontSize=12;" parent="1" vertex="1">
          <mxGeometry x="660" y="240" width="180" height="30" as="geometry" />
        </mxCell>
        <mxCell id="1H6XDZO_SaMHIrr3DRuN-4" value="binary payload" style="text;html=1;strokeColor=none;fillColor=none;align=left;verticalAlign=middle;whiteSpace=wrap;rounded=0;fontSize=12;" parent="1" vertex="1">
          <mxGeometry x="660" y="730" width="180" height="30" as="geometry" />
        </mxCell>
        <mxCell id="wjyqDLaXxEJzZsDn6pXu-1" value="connects to RadarHub" style="text;html=1;strokeColor=none;fillColor=none;align=left;verticalAlign=middle;whiteSpace=wrap;rounded=0;" parent="1" vertex="1">
          <mxGeometry x="220" y="80" width="180" height="30" as="geometry" />
        </mxCell>
        <mxCell id="wjyqDLaXxEJzZsDn6pXu-2" value="Hello {radar}. Welcome ..." style="text;html=1;strokeColor=none;fillColor=none;align=left;verticalAlign=middle;whiteSpace=wrap;rounded=0;fontSize=12;" parent="1" vertex="1">
          <mxGeometry x="220" y="490" width="180" height="30" as="geometry" />
        </mxCell>
        <mxCell id="MQMwcxZoMyvpIy2ts44x-1" value="Radar" style="rounded=1;whiteSpace=wrap;html=1;fillColor=#008a00;fontColor=#ffffff;strokeColor=#005700;" vertex="1" parent="1">
          <mxGeometry x="40" y="490.0000000000001" width="160" height="30" as="geometry" />
        </mxCell>
      </root>
    </mxGraphModel>
  </diagram>
</mxfile>
